<?xml version="1.0" standalone="no"?>
<!DOCTYPE svg PUBLIC "-//W3C//DTD SVG 20010904//EN"
 "http://www.w3.org/TR/2001/REC-SVG-20010904/DTD/svg10.dtd">
<svg version="1.0" xmlns="http://www.w3.org/2000/svg"
 width="170.000000pt" height="170.000000pt" viewBox="0 0 170.000000 170.000000"
 preserveAspectRatio="xMidYMid meet">
<metadata>
Created by potrace 1.14, written by Peter Selinger 2001-2017
</metadata>
<g transform="translate(0.000000,170.000000) scale(0.100000,-0.100000)"
fill="#000000" stroke="none">
<path d="M633 1442 l-163 -2 0 -153 c-1 -153 -3 -238 -15 -487 -6 -136 -8
-161 -20 -322 l-7 -88 158 0 159 0 1 133 c1 294 18 684 29 695 10 11 154 11
184 1 35 -12 51 -40 53 -89 3 -80 -63 -130 -163 -125 -42 2 -59 -1 -56 -9 2
-6 14 -55 26 -109 26 -114 25 -113 154 -104 154 9 266 77 324 195 21 44 28 74
31 141 5 109 -19 181 -83 244 -80 80 -134 87 -612 79z"/>
</g>
</svg>
